<mxfile host="Electron" modified="2024-09-03T07:19:23.877Z" agent="Mozilla/5.0 (Windows NT 10.0; Win64; x64) AppleWebKit/537.36 (KHTML, like Gecko) draw.io/22.0.3 Chrome/114.0.5735.289 Electron/25.8.4 Safari/537.36" etag="nNTiSvKoMFdIlaiSjlif" version="22.0.3" type="device">
  <diagram name="Page-1" id="nK2WXWRi20c_EiZxqpP3">
    <mxGraphModel dx="1404" dy="756" grid="1" gridSize="10" guides="1" tooltips="1" connect="1" arrows="1" fold="1" page="1" pageScale="1" pageWidth="600" pageHeight="170" math="0" shadow="0">
      <root>
        <mxCell id="0" />
        <mxCell id="1" parent="0" />
        <mxCell id="x96Iq67qb-lbHD9PgbYm-14" style="edgeStyle=orthogonalEdgeStyle;curved=1;rounded=0;orthogonalLoop=1;jettySize=auto;html=1;exitX=1;exitY=0.5;exitDx=0;exitDy=0;entryX=0;entryY=0.5;entryDx=0;entryDy=0;" parent="1" source="x96Iq67qb-lbHD9PgbYm-1" target="x96Iq67qb-lbHD9PgbYm-2" edge="1">
          <mxGeometry relative="1" as="geometry" />
        </mxCell>
        <mxCell id="x96Iq67qb-lbHD9PgbYm-1" value="Droite" style="ellipse;whiteSpace=wrap;html=1;aspect=fixed;" parent="1" vertex="1">
          <mxGeometry x="100" y="245" width="80" height="80" as="geometry" />
        </mxCell>
        <mxCell id="x96Iq67qb-lbHD9PgbYm-20" style="edgeStyle=orthogonalEdgeStyle;curved=1;rounded=0;orthogonalLoop=1;jettySize=auto;html=1;exitX=1;exitY=0.5;exitDx=0;exitDy=0;entryX=0;entryY=0.5;entryDx=0;entryDy=0;" parent="1" source="x96Iq67qb-lbHD9PgbYm-2" target="x96Iq67qb-lbHD9PgbYm-3" edge="1">
          <mxGeometry relative="1" as="geometry" />
        </mxCell>
        <mxCell id="x96Iq67qb-lbHD9PgbYm-2" value="Retenue" style="ellipse;whiteSpace=wrap;html=1;aspect=fixed;" parent="1" vertex="1">
          <mxGeometry x="260" y="245" width="80" height="80" as="geometry" />
        </mxCell>
        <mxCell id="x96Iq67qb-lbHD9PgbYm-3" value="Fin" style="ellipse;whiteSpace=wrap;html=1;aspect=fixed;" parent="1" vertex="1">
          <mxGeometry x="440" y="245" width="80" height="80" as="geometry" />
        </mxCell>
        <mxCell id="x96Iq67qb-lbHD9PgbYm-10" style="edgeStyle=orthogonalEdgeStyle;curved=1;rounded=0;orthogonalLoop=1;jettySize=auto;html=1;exitX=0;exitY=0;exitDx=0;exitDy=0;entryX=1;entryY=0;entryDx=0;entryDy=0;" parent="1" source="x96Iq67qb-lbHD9PgbYm-1" target="x96Iq67qb-lbHD9PgbYm-1" edge="1">
          <mxGeometry relative="1" as="geometry">
            <Array as="points">
              <mxPoint x="80" y="257" />
              <mxPoint x="80" y="185" />
              <mxPoint x="200" y="185" />
              <mxPoint x="200" y="257" />
            </Array>
          </mxGeometry>
        </mxCell>
        <mxCell id="x96Iq67qb-lbHD9PgbYm-13" value="1, 0&amp;nbsp;→ R" style="text;strokeColor=none;align=center;fillColor=none;html=1;verticalAlign=middle;whiteSpace=wrap;rounded=0;" parent="1" vertex="1">
          <mxGeometry x="110" y="185" width="60" height="30" as="geometry" />
        </mxCell>
        <mxCell id="x96Iq67qb-lbHD9PgbYm-17" value="␣&amp;nbsp;→ L" style="text;strokeColor=none;align=center;fillColor=none;html=1;verticalAlign=middle;whiteSpace=wrap;rounded=0;" parent="1" vertex="1">
          <mxGeometry x="190" y="285" width="60" height="30" as="geometry" />
        </mxCell>
        <mxCell id="x96Iq67qb-lbHD9PgbYm-18" style="edgeStyle=orthogonalEdgeStyle;curved=1;rounded=0;orthogonalLoop=1;jettySize=auto;html=1;exitX=0;exitY=0;exitDx=0;exitDy=0;entryX=1;entryY=0;entryDx=0;entryDy=0;" parent="1" edge="1">
          <mxGeometry relative="1" as="geometry">
            <mxPoint x="272" y="257" as="sourcePoint" />
            <mxPoint x="328" y="257" as="targetPoint" />
            <Array as="points">
              <mxPoint x="240" y="257" />
              <mxPoint x="240" y="185" />
              <mxPoint x="360" y="185" />
              <mxPoint x="360" y="257" />
            </Array>
          </mxGeometry>
        </mxCell>
        <mxCell id="x96Iq67qb-lbHD9PgbYm-19" value="1 → L" style="text;strokeColor=none;align=center;fillColor=none;html=1;verticalAlign=middle;whiteSpace=wrap;rounded=0;" parent="1" vertex="1">
          <mxGeometry x="270" y="185" width="60" height="30" as="geometry" />
        </mxCell>
        <mxCell id="x96Iq67qb-lbHD9PgbYm-21" value="0, ␣&amp;nbsp;→ 1, L" style="text;strokeColor=none;align=center;fillColor=none;html=1;verticalAlign=middle;whiteSpace=wrap;rounded=0;" parent="1" vertex="1">
          <mxGeometry x="360" y="285" width="60" height="30" as="geometry" />
        </mxCell>
      </root>
    </mxGraphModel>
  </diagram>
</mxfile>
